<svg data-v-d3f97b9e="" xmlns="http://www.w3.org/2000/svg" viewBox="0 0 415 101"><!----><!----><!----><g data-v-d3f97b9e="" id="e08569ef-6957-4afa-86e0-d6df27a6e8f4" fill="black" transform="matrix(5.4446458718365625,0,0,5.4446458718365625,105.4249121961559,12.516385579611295)"><path d="M9.31 1.82L9.31 1.82Q9.31 1.64 9.43 1.52L9.43 1.52L9.43 1.52Q9.55 1.40 9.73 1.40L9.73 1.40L9.73 1.40Q9.90 1.40 10.02 1.52L10.02 1.52L10.02 1.52Q10.15 1.64 10.15 1.82L10.15 1.82L10.15 11.91L10.15 11.91Q10.15 12.10 10.02 12.21L10.02 12.21L10.02 12.21Q9.90 12.33 9.73 12.33L9.73 12.33L9.73 12.33Q9.55 12.33 9.43 12.21L9.43 12.21L9.43 12.21Q9.31 12.10 9.31 11.91L9.31 11.91L9.31 7.20L2.24 7.20L2.24 11.91L2.24 11.91Q2.24 12.10 2.12 12.21L2.12 12.21L2.12 12.21Q2.00 12.33 1.82 12.33L1.82 12.33L1.82 12.33Q1.64 12.33 1.52 12.21L1.52 12.21L1.52 12.21Q1.40 12.10 1.40 11.91L1.40 11.91L1.40 1.82L1.40 1.82Q1.40 1.64 1.52 1.52L1.52 1.52L1.52 1.52Q1.64 1.40 1.82 1.40L1.82 1.40L1.82 1.40Q2.00 1.40 2.12 1.52L2.12 1.52L2.12 1.52Q2.24 1.64 2.24 1.82L2.24 1.82L2.24 6.44L9.31 6.44L9.31 1.82ZM13.09 5.10L13.09 5.10Q13.09 4.90 13.21 4.79L13.21 4.79L13.21 4.79Q13.33 4.68 13.51 4.68L13.51 4.68L13.51 4.68Q13.71 4.68 13.82 4.79L13.82 4.79L13.82 4.79Q13.93 4.90 13.93 5.10L13.93 5.10L13.93 11.91L13.93 11.91Q13.93 12.10 13.82 12.21L13.82 12.21L13.82 12.21Q13.71 12.33 13.51 12.33L13.51 12.33L13.51 12.33Q13.33 12.33 13.21 12.21L13.21 12.21L13.21 12.21Q13.09 12.10 13.09 11.91L13.09 11.91L13.09 5.10ZM13.51 1.76L13.51 1.76Q13.78 1.76 13.96 1.93L13.96 1.93L13.96 1.93Q14.15 2.10 14.15 2.41L14.15 2.41L14.15 2.41Q14.15 2.69 13.96 2.88L13.96 2.88L13.96 2.88Q13.78 3.07 13.50 3.07L13.50 3.07L13.50 3.07Q13.22 3.07 13.03 2.88L13.03 2.88L13.03 2.88Q12.85 2.69 12.85 2.41L12.85 2.41L12.85 2.41Q12.85 2.10 13.05 1.93L13.05 1.93L13.05 1.93Q13.24 1.76 13.51 1.76L13.51 1.76ZM19.35 4.59L19.35 4.59Q21.11 4.59 22.02 5.85L22.02 5.85L22.02 5.85Q22.11 5.95 22.11 6.09L22.11 6.09L22.11 6.09Q22.11 6.29 21.88 6.41L21.88 6.41L21.88 6.41Q21.74 6.47 21.67 6.47L21.67 6.47L21.67 6.47Q21.46 6.47 21.32 6.29L21.32 6.29L21.32 6.29Q20.61 5.38 19.32 5.38L19.32 5.38L19.32 5.38Q18.47 5.38 17.96 5.75L17.96 5.75L17.96 5.75Q17.46 6.12 17.46 6.66L17.46 6.66L17.46 6.66Q17.46 7.22 17.94 7.56L17.94 7.56L17.94 7.56Q18.42 7.90 19.56 8.06L19.56 8.06L19.56 8.06Q21.04 8.27 21.69 8.86L21.69 8.86L21.69 8.86Q22.34 9.44 22.34 10.26L22.34 10.26L22.34 10.26Q22.34 10.91 21.93 11.40L21.93 11.40L21.93 11.40Q21.52 11.89 20.83 12.15L20.83 12.15L20.83 12.15Q20.15 12.42 19.33 12.42L19.33 12.42L19.33 12.42Q18.52 12.42 17.75 12.13L17.75 12.13L17.75 12.13Q16.98 11.84 16.48 11.26L16.48 11.26L16.48 11.26Q16.38 11.14 16.38 11.00L16.38 11.00L16.38 11.00Q16.38 10.81 16.56 10.68L16.56 10.68L16.56 10.68Q16.65 10.61 16.80 10.61L16.80 10.61L16.80 10.61Q17.00 10.61 17.12 10.77L17.12 10.77L17.12 10.77Q17.82 11.62 19.38 11.62L19.38 11.62L19.38 11.62Q20.48 11.62 21.01 11.23L21.01 11.23L21.01 11.23Q21.53 10.84 21.53 10.22L21.53 10.22L21.53 10.22Q21.53 9.11 19.39 8.81L19.39 8.81L19.39 8.81Q18.03 8.61 17.34 8.06L17.34 8.06L17.34 8.06Q16.65 7.52 16.65 6.75L16.65 6.75L16.65 6.75Q16.65 5.73 17.39 5.16L17.39 5.16L17.39 5.16Q18.14 4.59 19.35 4.59L19.35 4.59ZM27.69 11.48L27.69 11.48Q27.89 11.48 28.01 11.60L28.01 11.60L28.01 11.60Q28.13 11.72 28.13 11.91L28.13 11.91L28.13 11.91Q28.13 12.10 28.01 12.21L28.01 12.21L28.01 12.21Q27.89 12.33 27.69 12.33L27.69 12.33L27.37 12.33L27.37 12.33Q26.60 12.33 26.00 11.98L26.00 11.98L26.00 11.98Q25.40 11.63 25.06 11.03L25.06 11.03L25.06 11.03Q24.72 10.42 24.72 9.65L24.72 9.65L24.72 5.71L23.63 5.71L23.63 5.71Q23.46 5.71 23.36 5.61L23.36 5.61L23.36 5.61Q23.25 5.50 23.25 5.33L23.25 5.33L23.25 5.33Q23.25 5.17 23.36 5.06L23.36 5.06L23.36 5.06Q23.46 4.96 23.63 4.96L23.63 4.96L24.72 4.96L24.72 2.67L24.72 2.67Q24.72 2.48 24.84 2.36L24.84 2.36L24.84 2.36Q24.96 2.24 25.14 2.24L25.14 2.24L25.14 2.24Q25.34 2.24 25.46 2.36L25.46 2.36L25.46 2.36Q25.58 2.48 25.58 2.67L25.58 2.67L25.58 4.96L27.43 4.96L27.43 4.96Q27.59 4.96 27.70 5.06L27.70 5.06L27.70 5.06Q27.80 5.17 27.80 5.33L27.80 5.33L27.80 5.33Q27.80 5.50 27.70 5.61L27.70 5.61L27.70 5.61Q27.59 5.71 27.43 5.71L27.43 5.71L25.58 5.71L25.58 9.65L25.58 9.65Q25.58 10.46 26.08 10.97L26.08 10.97L26.08 10.97Q26.59 11.48 27.38 11.48L27.38 11.48L27.69 11.48ZM33.38 4.59L33.38 4.59Q34.47 4.59 35.36 5.10L35.36 5.10L35.36 5.10Q36.26 5.61 36.77 6.51L36.77 6.51L36.77 6.51Q37.28 7.41 37.28 8.51L37.28 8.51L37.28 8.51Q37.28 9.60 36.77 10.50L36.77 10.50L36.77 10.50Q36.26 11.40 35.36 11.91L35.36 11.91L35.36 11.91Q34.47 12.42 33.38 12.42L33.38 12.42L33.38 12.42Q32.27 12.42 31.37 11.91L31.37 11.91L31.37 11.91Q30.48 11.40 29.97 10.50L29.97 10.50L29.97 10.50Q29.46 9.60 29.46 8.51L29.46 8.51L29.46 8.51Q29.46 7.41 29.97 6.51L29.97 6.51L29.97 6.51Q30.48 5.61 31.37 5.10L31.37 5.10L31.37 5.10Q32.27 4.59 33.38 4.59L33.38 4.59ZM33.38 5.38L33.38 5.38Q32.51 5.38 31.81 5.79L31.81 5.79L31.81 5.79Q31.11 6.20 30.70 6.92L30.70 6.92L30.70 6.92Q30.30 7.63 30.30 8.51L30.30 8.51L30.30 8.51Q30.30 9.39 30.70 10.11L30.70 10.11L30.70 10.11Q31.11 10.82 31.81 11.23L31.81 11.23L31.81 11.23Q32.51 11.63 33.38 11.63L33.38 11.63L33.38 11.63Q34.24 11.63 34.94 11.23L34.94 11.23L34.94 11.23Q35.64 10.82 36.04 10.11L36.04 10.11L36.04 10.11Q36.44 9.39 36.44 8.51L36.44 8.51L36.44 8.51Q36.44 7.63 36.04 6.92L36.04 6.92L36.04 6.92Q35.64 6.20 34.94 5.79L34.94 5.79L34.94 5.79Q34.24 5.38 33.38 5.38L33.38 5.38ZM42.63 4.59L42.63 4.59Q43.69 4.59 43.69 5.05L43.69 5.05L43.69 5.05Q43.69 5.12 43.68 5.17L43.68 5.17L43.68 5.17Q43.64 5.32 43.55 5.38L43.55 5.38L43.55 5.38Q43.46 5.45 43.30 5.45L43.30 5.45L43.30 5.45Q43.18 5.45 42.97 5.42L42.97 5.42L42.97 5.42Q42.77 5.39 42.63 5.39L42.63 5.39L42.63 5.39Q41.93 5.39 41.38 5.68L41.38 5.68L41.38 5.68Q40.84 5.98 40.53 6.50L40.53 6.50L40.53 6.50Q40.22 7.01 40.22 7.66L40.22 7.66L40.22 11.91L40.22 11.91Q40.22 12.10 40.11 12.21L40.11 12.21L40.11 12.21Q40.00 12.33 39.80 12.33L39.80 12.33L39.80 12.33Q39.62 12.33 39.50 12.21L39.50 12.21L39.50 12.21Q39.38 12.10 39.38 11.91L39.38 11.91L39.38 5.10L39.38 5.10Q39.38 4.90 39.50 4.79L39.50 4.79L39.50 4.79Q39.62 4.68 39.80 4.68L39.80 4.68L39.80 4.68Q40.00 4.68 40.11 4.79L40.11 4.79L40.11 4.79Q40.22 4.90 40.22 5.10L40.22 5.10L40.22 5.96L40.22 5.96Q40.63 5.32 41.26 4.96L41.26 4.96L41.26 4.96Q41.89 4.59 42.63 4.59L42.63 4.59ZM45.79 5.10L45.79 5.10Q45.79 4.90 45.91 4.79L45.91 4.79L45.91 4.79Q46.03 4.68 46.21 4.68L46.21 4.68L46.21 4.68Q46.41 4.68 46.52 4.79L46.52 4.79L46.52 4.79Q46.63 4.90 46.63 5.10L46.63 5.10L46.63 11.91L46.63 11.91Q46.63 12.10 46.52 12.21L46.52 12.21L46.52 12.21Q46.41 12.33 46.21 12.33L46.21 12.33L46.21 12.33Q46.03 12.33 45.91 12.21L45.91 12.21L45.91 12.21Q45.79 12.10 45.79 11.91L45.79 11.91L45.79 5.10ZM46.21 1.76L46.21 1.76Q46.48 1.76 46.67 1.93L46.67 1.93L46.67 1.93Q46.86 2.10 46.86 2.41L46.86 2.41L46.86 2.41Q46.86 2.69 46.67 2.88L46.67 2.88L46.67 2.88Q46.48 3.07 46.20 3.07L46.20 3.07L46.20 3.07Q45.92 3.07 45.74 2.88L45.74 2.88L45.74 2.88Q45.56 2.69 45.56 2.41L45.56 2.41L45.56 2.41Q45.56 2.10 45.75 1.93L45.75 1.93L45.75 1.93Q45.95 1.76 46.21 1.76L46.21 1.76ZM52.93 4.59L52.93 4.59Q54.03 4.59 54.92 5.10L54.92 5.10L54.92 5.10Q55.82 5.61 56.33 6.51L56.33 6.51L56.33 6.51Q56.84 7.41 56.84 8.51L56.84 8.51L56.84 11.91L56.84 11.91Q56.84 12.10 56.73 12.21L56.73 12.21L56.73 12.21Q56.62 12.33 56.42 12.33L56.42 12.33L56.42 12.33Q56.24 12.33 56.12 12.21L56.12 12.21L56.12 12.21Q56 12.10 56 11.91L56 11.91L56 10.82L56 10.82Q55.54 11.56 54.73 11.99L54.73 11.99L54.73 11.99Q53.93 12.42 52.93 12.42L52.93 12.42L52.93 12.42Q51.83 12.42 50.93 11.91L50.93 11.91L50.93 11.91Q50.04 11.40 49.52 10.50L49.52 10.50L49.52 10.50Q49.01 9.60 49.01 8.51L49.01 8.51L49.01 8.51Q49.01 7.41 49.52 6.51L49.52 6.51L49.52 6.51Q50.04 5.61 50.93 5.10L50.93 5.10L50.93 5.10Q51.83 4.59 52.93 4.59L52.93 4.59ZM52.93 11.63L52.93 11.63Q53.80 11.63 54.50 11.23L54.50 11.23L54.50 11.23Q55.20 10.82 55.60 10.11L55.60 10.11L55.60 10.11Q56 9.39 56 8.51L56 8.51L56 8.51Q56 7.63 55.60 6.92L55.60 6.92L55.60 6.92Q55.20 6.20 54.50 5.79L54.50 5.79L54.50 5.79Q53.80 5.38 52.93 5.38L52.93 5.38L52.93 5.38Q52.07 5.38 51.37 5.79L51.37 5.79L51.37 5.79Q50.67 6.20 50.26 6.92L50.26 6.92L50.26 6.92Q49.85 7.63 49.85 8.51L49.85 8.51L49.85 8.51Q49.85 9.39 50.26 10.11L50.26 10.11L50.26 10.11Q50.67 10.82 51.37 11.23L51.37 11.23L51.37 11.23Q52.07 11.63 52.93 11.63L52.93 11.63Z"></path></g><!----><g data-v-d3f97b9e="" id="87e1fb50-f31e-4b28-bc32-8990347adf40" transform="matrix(1.0555555555555556,0,0,1.0555555555555556,-9.051486333211265,-2.2777777777777786)" stroke="none" fill="black"><path d="M78.275 26.72H66.541c-5.086 0-5.396-4.507-5.405-5.4V9.514L78.275 26.72zm3.605 38.989l3.489 3.489V28.9L61.136 4.569v-.114h-.113L59.076 2.5H18.395C15.318 2.5 9.5 4.364 9.5 11.422v77.155c0 3.087 1.859 8.923 8.895 8.923h58.081c3.075 0 8.894-1.865 8.894-8.923V83.34l-3.489-3.49v8.728c0 5.108-4.503 5.423-5.41 5.434H18.395c-5.087 0-5.395-4.532-5.404-5.434V11.422c0-5.112 4.51-5.422 5.404-5.433h39.232l.021.021v15.309c0 .478.063 1.031.169 1.608H25.095a1.745 1.745 0 1 0 0 3.489H59.16c1.297 2.062 3.557 3.793 7.381 3.793H81.75l.13.13v35.37zM39.25 51.4c0-1.07.105-2.116.26-3.145H25.095a1.745 1.745 0 1 0 0 3.488h14.173c-.002-.114-.018-.226-.018-.343M25.095 39.081H43.22a21.373 21.373 0 0 1 3.132-3.49H25.095a1.745 1.745 0 1 0 0 3.49m16.434 21.838H25.095a1.744 1.744 0 1 0 0 3.489h18.64a21.242 21.242 0 0 1-2.206-3.489m28.246 12.665h-44.68a1.744 1.744 0 1 0 0 3.489h44.681a1.744 1.744 0 1 0-.001-3.489M60.5 66.9c-8.547 0-15.5-6.953-15.5-15.5s6.953-15.5 15.5-15.5S76 42.854 76 51.4s-6.953 15.5-15.5 15.5m36.271 16.529l-20.801-20.8c-.034-.034-.075-.059-.111-.09 2.28-3.135 3.641-6.977 3.641-11.139 0-10.477-8.523-19-19-19s-19 8.523-19 19 8.523 19 19 19c4.162 0 8.005-1.361 11.139-3.64.032.035.057.076.09.109L92.53 87.67c.586.586 1.354.879 2.121.879s1.535-.293 2.121-.879a2.998 2.998 0 0 0-.001-4.241"></path></g><!----></svg>