<svg data-v-d3f97b9e="" xmlns="http://www.w3.org/2000/svg" viewBox="0 0 55.673800819798515 60"><!----><!----><!----><!----><g data-v-d3f97b9e="" id="603e54e2-1c29-4dc5-8d74-ed29b009f091" transform="matrix(0.631578947368421,0,0,0.631578947368421,-5.999999698839687,-1.5789473684210513)" stroke="none" fill="black"><path d="M78.275 26.72H66.541c-5.086 0-5.396-4.507-5.405-5.4V9.514L78.275 26.72zm3.605 38.989l3.489 3.489V28.9L61.136 4.569v-.114h-.113L59.076 2.5H18.395C15.318 2.5 9.5 4.364 9.5 11.422v77.155c0 3.087 1.859 8.923 8.895 8.923h58.081c3.075 0 8.894-1.865 8.894-8.923V83.34l-3.489-3.49v8.728c0 5.108-4.503 5.423-5.41 5.434H18.395c-5.087 0-5.395-4.532-5.404-5.434V11.422c0-5.112 4.51-5.422 5.404-5.433h39.232l.021.021v15.309c0 .478.063 1.031.169 1.608H25.095a1.745 1.745 0 1 0 0 3.489H59.16c1.297 2.062 3.557 3.793 7.381 3.793H81.75l.13.13v35.37zM39.25 51.4c0-1.07.105-2.116.26-3.145H25.095a1.745 1.745 0 1 0 0 3.488h14.173c-.002-.114-.018-.226-.018-.343M25.095 39.081H43.22a21.373 21.373 0 0 1 3.132-3.49H25.095a1.745 1.745 0 1 0 0 3.49m16.434 21.838H25.095a1.744 1.744 0 1 0 0 3.489h18.64a21.242 21.242 0 0 1-2.206-3.489m28.246 12.665h-44.68a1.744 1.744 0 1 0 0 3.489h44.681a1.744 1.744 0 1 0-.001-3.489M60.5 66.9c-8.547 0-15.5-6.953-15.5-15.5s6.953-15.5 15.5-15.5S76 42.854 76 51.4s-6.953 15.5-15.5 15.5m36.271 16.529l-20.801-20.8c-.034-.034-.075-.059-.111-.09 2.28-3.135 3.641-6.977 3.641-11.139 0-10.477-8.523-19-19-19s-19 8.523-19 19 8.523 19 19 19c4.162 0 8.005-1.361 11.139-3.64.032.035.057.076.09.109L92.53 87.67c.586.586 1.354.879 2.121.879s1.535-.293 2.121-.879a2.998 2.998 0 0 0-.001-4.241"></path></g><!----></svg>